<svg version="1.0" xmlns="http://www.w3.org/2000/svg" width="509.333" height="521.333" viewBox="0 0 382 391"><path d="M89.5 12.5C75.8 18.8 62.4 24.9 59.8 26c-5.7 2.5-5.8 2.8-1.9 14.7C62.3 53.9 69 69 81.6 94c19.8 39.3 27.5 51.3 51.2 79.7 5.6 6.8 10 12.3 9.7 12.3-1.3 0-25.1-21.9-35.5-32.6-19.2-19.7-35.8-42.1-61.6-82.5l-2.9-4.7-21.2 19.1L.2 104.4l7.2 9.5c13.5 18 22.2 32.4 29 48.5 7.5 17.7 8.1 21 8.1 47.1 0 25.8-1 33.1-7.2 50.9-5.4 15.5-12.5 28.5-22 40.2-2.6 3.2-3 4.4-2.1 5.1 2.1 1.6 58.6 35.3 59.2 35.3 1 0 5.9-10.4 8.7-18.8 7.3-21.5 11.3-53 11.4-88.4 0-17.4.3-24.4 1.1-24 .6.4 14.9 10.8 31.7 23.2l30.7 22.5-.3 44.5c-.3 41.7-.5 45-2.5 51.9-3.9 13.9-14 29.5-22.9 35.6l-3.8 2.5H240.8l-7.9-8c-10.1-10.3-16.7-23.1-19.8-38.6-1.9-9.2-2-12.2-1.3-32.7l.7-22.6 23.5 17.1c19.3 14.1 26 19.7 37.9 31.5 7.9 7.9 14.5 14.3 14.7 14.3.9 0 37.4-32.2 37.4-32.9 0-.5-1.8-4.8-4-9.6-9-19.5-16.1-45-18-65.1-4.3-46.1 25.3-97.5 68.9-119.6l8.7-4.4-13-20.2C361.4 88.1 355 79 354.4 79c-.5 0-5.1 2.8-10.2 6.2-32.5 22.3-55.4 47.1-70.2 75.8-13.5 26.5-20 54.2-20 85.7v9.4l-23-11.8-23-11.8V211l.1-21.5 9.7-7c23.7-17 47.2-39.3 61.5-58.2 13.5-17.9 36.4-53.9 41.5-65.3 2.6-5.8 8.4-22.2 7.9-22.5-1.2-1.1-63-32.6-63.2-32.3-.2.2-.8 8.9-1.4 19.4-1.7 28.4-4.4 37.7-19.2 66.4-9.7 18.6-17.5 30.7-29.7 45.9-10.3 12.8-26.9 31.1-28.3 31.1-1.3 0-14.3-16.6-23.1-29.5-15.7-23-24.1-39.4-31.8-62.5-7.5-22.5-11.8-40.7-13.8-58.3-.9-8.8-2.1-15.7-2.7-15.6-.5 0-12.2 5.2-26 11.4z"/></svg>