<?xml version="1.0" encoding="UTF-8"?>
<!DOCTYPE svg PUBLIC "-//W3C//DTD SVG 1.1//EN" "http://www.w3.org/Graphics/SVG/1.1/DTD/svg11.dtd">
<svg xmlns="http://www.w3.org/2000/svg" version="1.1" width="512px" height="512px" style="shape-rendering:geometricPrecision; text-rendering:geometricPrecision; image-rendering:optimizeQuality; fill-rule:evenodd; clip-rule:evenodd" xmlns:xlink="http://www.w3.org/1999/xlink">
<g><path style="opacity:0.993" fill="#000000" d="M 248.5,-0.5 C 253.167,-0.5 257.833,-0.5 262.5,-0.5C 269.997,2.83509 274.831,8.50176 277,16.5C 277.5,25.4938 277.666,34.4938 277.5,43.5C 336.832,54.2558 376.999,87.9225 398,144.5C 401.875,156.54 404.208,168.874 405,181.5C 405.333,209.167 405.667,236.833 406,264.5C 409.224,295.269 420.891,322.269 441,345.5C 448.387,352.887 455.721,360.221 463,367.5C 473.591,387.543 470.424,405.043 453.5,420C 448.828,422.837 443.828,424.837 438.5,426C 316.5,426.667 194.5,426.667 72.5,426C 48.5819,419.009 38.7486,403.176 43,378.5C 44.3926,374.714 46.0593,371.048 48,367.5C 58.6771,357.489 68.6771,346.822 78,335.5C 93.2915,314.301 102.291,290.635 105,264.5C 105.333,236.833 105.667,209.167 106,181.5C 112.512,120.003 144.012,76.8359 200.5,52C 211.232,48.0671 222.232,45.2338 233.5,43.5C 233.334,34.4938 233.5,25.4938 234,16.5C 236.169,8.50176 241.003,2.83509 248.5,-0.5 Z"/></g>
<g><path style="opacity:0.984" fill="#000000" d="M 268.5,511.5 C 259.833,511.5 251.167,511.5 242.5,511.5C 208.208,503.545 186.208,482.545 176.5,448.5C 229.167,447.167 281.833,447.167 334.5,448.5C 324.792,482.545 302.792,503.545 268.5,511.5 Z"/></g>
</svg>
