<?xml version="1.0" encoding="UTF-8"?>
<!DOCTYPE svg PUBLIC "-//W3C//DTD SVG 1.1//EN" "http://www.w3.org/Graphics/SVG/1.1/DTD/svg11.dtd">
<svg xmlns="http://www.w3.org/2000/svg" version="1.1" width="512px" height="512px" style="shape-rendering:geometricPrecision; text-rendering:geometricPrecision; image-rendering:optimizeQuality; fill-rule:evenodd; clip-rule:evenodd" xmlns:xlink="http://www.w3.org/1999/xlink">
<g><path style="opacity:0.986" fill="#000000" d="M 143.5,15.5 C 218.167,15.3333 292.834,15.5 367.5,16C 392.111,20.6156 410.611,33.7823 423,55.5C 426.865,63.0949 429.532,71.0949 431,79.5C 431.667,214.833 431.667,350.167 431,485.5C 428.193,492.487 423.027,495.82 415.5,495.5C 411.877,495.756 408.544,494.923 405.5,493C 355.89,457.548 305.89,422.714 255.5,388.5C 205.365,423.074 155.365,457.907 105.5,493C 96.7779,497.236 88.9446,496.069 82,489.5C 81.3333,488.167 80.6667,486.833 80,485.5C 79.3333,350.167 79.3333,214.833 80,79.5C 88.0142,44.9862 109.181,23.6529 143.5,15.5 Z M 156.5,47.5 C 222.501,47.3333 288.501,47.5 354.5,48C 375.628,49.1441 389.795,59.6441 397,79.5C 398.03,83.7727 398.697,88.106 399,92.5C 399.667,210.833 399.667,329.167 399,447.5C 353.167,415.667 307.333,383.833 261.5,352C 254.493,350.438 248.159,351.771 242.5,356C 199.262,386.869 155.762,417.369 112,447.5C 111.017,326.146 111.35,204.813 113,83.5C 119.27,61.3848 133.77,49.3848 156.5,47.5 Z"/></g>
</svg>
