<?xml version="1.0" encoding="UTF-8"?>
<!DOCTYPE svg PUBLIC "-//W3C//DTD SVG 1.1//EN" "http://www.w3.org/Graphics/SVG/1.1/DTD/svg11.dtd">
<svg xmlns="http://www.w3.org/2000/svg" version="1.1" width="512px" height="512px" style="shape-rendering:geometricPrecision; text-rendering:geometricPrecision; image-rendering:optimizeQuality; fill-rule:evenodd; clip-rule:evenodd" xmlns:xlink="http://www.w3.org/1999/xlink">
<g><path style="opacity:0.994" fill="#000000" d="M 511.5,166.5 C 511.5,177.833 511.5,189.167 511.5,200.5C 504.887,237.732 490.054,271.398 467,301.5C 446.32,328.186 423.486,353.019 398.5,376C 356.682,412.904 312.015,445.904 264.5,475C 258.5,478.333 252.5,478.333 246.5,475C 181.898,436.561 123.398,390.061 71,335.5C 44.7557,307.225 24.089,275.225 9,239.5C 4.70532,227.318 1.53865,214.985 -0.5,202.5C -0.5,190.833 -0.5,179.167 -0.5,167.5C 5.64436,118.692 28.9777,80.525 69.5,53C 115.488,27.0012 161.488,27.0012 207.5,53C 227.023,65.6893 243.023,81.856 255.5,101.5C 296.293,41.1779 351.627,21.6779 421.5,43C 464.885,62.2451 493.052,94.7451 506,140.5C 508.179,149.237 510.012,157.903 511.5,166.5 Z"/></g>
</svg>
