<?xml version="1.0" encoding="UTF-8"?>
<!DOCTYPE svg PUBLIC "-//W3C//DTD SVG 1.1//EN" "http://www.w3.org/Graphics/SVG/1.1/DTD/svg11.dtd">
<svg xmlns="http://www.w3.org/2000/svg" version="1.1" width="512px" height="512px" style="shape-rendering:geometricPrecision; text-rendering:geometricPrecision; image-rendering:optimizeQuality; fill-rule:evenodd; clip-rule:evenodd" xmlns:xlink="http://www.w3.org/1999/xlink">
<g><path style="opacity:0.997" fill="#000000" d="M 511.5,88.5 C 511.5,93.1667 511.5,97.8333 511.5,102.5C 509.018,108.48 504.685,112.647 498.5,115C 336.5,115.667 174.5,115.667 12.5,115C 6.31536,112.647 1.98203,108.48 -0.5,102.5C -0.5,97.8333 -0.5,93.1667 -0.5,88.5C 1.98203,82.5198 6.31536,78.3531 12.5,76C 174.5,75.3333 336.5,75.3333 498.5,76C 504.685,78.3531 509.018,82.5198 511.5,88.5 Z"/></g>
<g><path style="opacity:0.997" fill="#000000" d="M 511.5,248.5 C 511.5,253.167 511.5,257.833 511.5,262.5C 509.018,268.48 504.685,272.647 498.5,275C 336.5,275.667 174.5,275.667 12.5,275C 6.31536,272.647 1.98203,268.48 -0.5,262.5C -0.5,257.833 -0.5,253.167 -0.5,248.5C 1.98203,242.52 6.31536,238.353 12.5,236C 174.5,235.333 336.5,235.333 498.5,236C 504.685,238.353 509.018,242.52 511.5,248.5 Z"/></g>
<g><path style="opacity:0.997" fill="#000000" d="M 511.5,408.5 C 511.5,413.167 511.5,417.833 511.5,422.5C 509.018,428.48 504.685,432.647 498.5,435C 336.5,435.667 174.5,435.667 12.5,435C 6.31536,432.647 1.98203,428.48 -0.5,422.5C -0.5,417.833 -0.5,413.167 -0.5,408.5C 1.98203,402.52 6.31536,398.353 12.5,396C 174.5,395.333 336.5,395.333 498.5,396C 504.685,398.353 509.018,402.52 511.5,408.5 Z"/></g>
</svg>
