<?xml version="1.0" encoding="UTF-8"?>
<!DOCTYPE svg PUBLIC "-//W3C//DTD SVG 1.1//EN" "http://www.w3.org/Graphics/SVG/1.1/DTD/svg11.dtd">
<svg xmlns="http://www.w3.org/2000/svg" version="1.1" width="512px" height="512px" style="shape-rendering:geometricPrecision; text-rendering:geometricPrecision; image-rendering:optimizeQuality; fill-rule:evenodd; clip-rule:evenodd" xmlns:xlink="http://www.w3.org/1999/xlink">
<g><path style="opacity:0.965" fill="#000000" d="M 49.5,63.5 C 55.1052,62.9081 60.4386,63.7415 65.5,66C 166.337,124.586 267.337,182.919 368.5,241C 379.157,250.62 379.157,260.287 368.5,270C 266.67,328.414 165.003,387.081 63.5,446C 51.8702,450.263 43.7036,446.763 39,435.5C 38.3333,315.5 38.3333,195.5 39,75.5C 40.6213,69.7204 44.1213,65.7204 49.5,63.5 Z M 71.5,108.5 C 156.474,156.987 241.141,205.987 325.5,255.5C 241.281,304.864 156.781,353.864 72,402.5C 71.5,304.501 71.3333,206.501 71.5,108.5 Z"/></g>
<g><path style="opacity:0.967" fill="#000000" d="M 449.5,63.5 C 458.631,61.3812 465.797,64.0478 471,71.5C 471.333,72.8333 471.667,74.1667 472,75.5C 472.667,195.5 472.667,315.5 472,435.5C 468.132,446.138 460.632,449.972 449.5,447C 444.6,445.098 441.433,441.598 440,436.5C 439.333,315.833 439.333,195.167 440,74.5C 441.599,69.406 444.766,65.7393 449.5,63.5 Z"/></g>
</svg>
