<?xml version="1.0" encoding="UTF-8"?>
<!DOCTYPE svg PUBLIC "-//W3C//DTD SVG 1.1//EN" "http://www.w3.org/Graphics/SVG/1.1/DTD/svg11.dtd">
<svg xmlns="http://www.w3.org/2000/svg" version="1.1" width="512px" height="512px" style="shape-rendering:geometricPrecision; text-rendering:geometricPrecision; image-rendering:optimizeQuality; fill-rule:evenodd; clip-rule:evenodd" xmlns:xlink="http://www.w3.org/1999/xlink">
<g><path style="opacity:0.966" fill="#000000" d="M 48.5,-0.5 C 52.5,-0.5 56.5,-0.5 60.5,-0.5C 194.977,79.1045 329.643,158.605 464.5,238C 475.669,245.176 478.169,254.676 472,266.5C 469.795,269.04 467.295,271.207 464.5,273C 329.664,352.363 194.997,431.863 60.5,511.5C 56.5,511.5 52.5,511.5 48.5,511.5C 42.1204,508.947 37.9538,504.28 36,497.5C 35.3333,336.167 35.3333,174.833 36,13.5C 37.9538,6.71998 42.1204,2.05332 48.5,-0.5 Z M 73.5,51.5 C 188.939,118.721 303.939,186.721 418.5,255.5C 304.094,323.898 189.428,391.898 74.5,459.5C 73.5,323.502 73.1667,187.502 73.5,51.5 Z"/></g>
</svg>
