<?xml version="1.0" encoding="UTF-8"?>
<!DOCTYPE svg PUBLIC "-//W3C//DTD SVG 1.1//EN" "http://www.w3.org/Graphics/SVG/1.1/DTD/svg11.dtd">
<svg xmlns="http://www.w3.org/2000/svg" version="1.1" width="512px" height="512px" style="shape-rendering:geometricPrecision; text-rendering:geometricPrecision; image-rendering:optimizeQuality; fill-rule:evenodd; clip-rule:evenodd" xmlns:xlink="http://www.w3.org/1999/xlink">
<g><path style="opacity:0.967" fill="#000000" d="M 48.5,63.5 C 52.8461,63.3343 57.1794,63.501 61.5,64C 66.4277,65.9268 69.5944,69.4268 71,74.5C 71.6667,195.167 71.6667,315.833 71,436.5C 66.0489,447.41 57.8823,450.577 46.5,446C 42.8062,443.313 40.3062,439.813 39,435.5C 38.3333,315.5 38.3333,195.5 39,75.5C 40.1552,69.8512 43.3218,65.8512 48.5,63.5 Z"/></g>
<g><path style="opacity:0.965" fill="#000000" d="M 449.5,63.5 C 460.676,61.0326 468.176,65.0326 472,75.5C 472.667,195.5 472.667,315.5 472,435.5C 467.296,446.763 459.13,450.263 447.5,446C 348.167,388.667 248.833,331.333 149.5,274C 144.884,271.44 140.718,268.273 137,264.5C 132.479,255.14 134.313,247.307 142.5,241C 245.223,182.312 347.557,123.145 449.5,63.5 Z M 438.5,108.5 C 439.666,206.332 439.832,304.332 439,402.5C 354.254,353.879 269.754,304.879 185.5,255.5C 269.697,206.236 354.03,157.236 438.5,108.5 Z"/></g>
</svg>
