<?xml version="1.0" encoding="UTF-8"?>
<!DOCTYPE svg PUBLIC "-//W3C//DTD SVG 1.1//EN" "http://www.w3.org/Graphics/SVG/1.1/DTD/svg11.dtd">
<svg xmlns="http://www.w3.org/2000/svg" version="1.1" width="512px" height="512px" style="shape-rendering:geometricPrecision; text-rendering:geometricPrecision; image-rendering:optimizeQuality; fill-rule:evenodd; clip-rule:evenodd" xmlns:xlink="http://www.w3.org/1999/xlink">
<g><path style="opacity:0.963" fill="#000000" d="M 204.5,47.5 C 274.078,42.8799 329.244,68.5466 370,124.5C 403.035,176.939 408.702,232.273 387,290.5C 380.234,307.213 371.067,322.38 359.5,336C 398.667,375.167 437.833,414.333 477,453.5C 481.236,462.222 480.069,470.055 473.5,477C 466.833,480.333 460.167,480.333 453.5,477C 414.333,437.833 375.167,398.667 336,359.5C 283.292,400.368 225.125,410.201 161.5,389C 102.922,365.341 66.0882,322.841 51,261.5C 38.0335,188.376 60.2002,128.543 117.5,82C 143.614,63.1305 172.614,51.6305 204.5,47.5 Z M 222.5,79.5 C 281.707,82.1703 325.207,109.504 353,161.5C 379.39,226.425 367.556,283.258 317.5,332C 272.367,368.019 222.7,376.019 168.5,356C 112.309,329.811 82.9754,285.645 80.5,223.5C 82.5522,164.532 109.552,121.365 161.5,94C 181.032,85.1985 201.366,80.3652 222.5,79.5 Z"/></g>
</svg>
